<svg width="156" height="64" viewBox="0 0 156 64" fill="none" xmlns="http://www.w3.org/2000/svg">
<path d="M60 34C60 39.9334 58.2405 45.7336 54.9441 50.6671C51.6477 55.6006 46.9623 59.4457 41.4805 61.7164C35.9987 63.987 29.9667 64.5811 24.1473 63.4236C18.3279 62.266 12.9824 59.4088 8.78682 55.2132C4.59124 51.0177 1.73401 45.6722 0.57645 39.8528C-0.581114 34.0333 0.0129755 28.0013 2.28359 22.5195C4.55421 17.0378 8.39938 12.3524 13.3328 9.05595C18.2663 5.7595 24.0665 4.00001 29.9999 4L29.9999 9.97421C25.2481 9.97423 20.603 11.3833 16.6519 14.0233C12.7009 16.6633 9.6215 20.4156 7.80305 24.8058C5.98461 29.1959 5.50882 34.0267 6.43587 38.6872C7.36292 43.3478 9.65116 47.6288 13.0112 50.9888C16.3713 54.3489 20.6523 56.6371 25.3128 57.5641C29.9734 58.4912 34.8041 58.0154 39.1943 56.1969C43.5844 54.3785 47.3367 51.299 49.9767 47.348C52.6167 43.397 54.0258 38.7519 54.0258 34H60Z" fill="white"/>
<circle cx="29.5" cy="34.5" r="3.5" fill="white"/>
<path d="M51.3234 12.6901L32.5806 36.2338L27.7797 31.4329L51.3234 12.6901Z" fill="white"/>
<path d="M51.7782 12.1213L49.3727 18.2011L45.6984 14.5268L51.7782 12.1213Z" fill="white"/>
<path d="M66.48 21.328C66.128 21.472 65.736 21.616 65.304 21.76C64.888 21.904 64.448 22.016 63.984 22.096C63.52 22.192 63.064 22.24 62.616 22.24C61.976 22.24 61.384 22.136 60.84 21.928C60.312 21.704 59.888 21.344 59.568 20.848C59.264 20.352 59.112 19.696 59.112 18.88V12.304H57.504V9.4H59.112V5.392H62.952V9.4H65.52V12.304H62.952V17.56C62.952 17.976 63.056 18.28 63.264 18.472C63.472 18.648 63.736 18.736 64.056 18.736C64.328 18.736 64.616 18.688 64.92 18.592C65.24 18.496 65.512 18.392 65.736 18.28L66.48 21.328ZM67.9763 22V9.4H71.8163V22H67.9763ZM67.9763 7.96V4.48H71.8163V7.96H67.9763ZM94.365 22H90.525V14.92C90.525 14.104 90.373 13.504 90.069 13.12C89.765 12.736 89.373 12.544 88.893 12.544C88.381 12.544 87.877 12.752 87.381 13.168C86.885 13.584 86.533 14.12 86.325 14.776V22H82.485V14.92C82.485 14.088 82.333 13.488 82.029 13.12C81.725 12.736 81.333 12.544 80.853 12.544C80.357 12.544 79.861 12.752 79.365 13.168C78.869 13.584 78.509 14.12 78.285 14.776V22H74.445V9.4H77.901V11.512C78.365 10.76 78.989 10.184 79.773 9.784C80.573 9.368 81.501 9.16 82.557 9.16C83.597 9.16 84.397 9.408 84.957 9.904C85.517 10.384 85.877 10.952 86.037 11.608C86.517 10.824 87.149 10.224 87.933 9.808C88.733 9.376 89.629 9.16 90.621 9.16C91.421 9.16 92.069 9.312 92.565 9.616C93.061 9.904 93.437 10.288 93.693 10.768C93.949 11.248 94.125 11.768 94.221 12.328C94.317 12.872 94.365 13.408 94.365 13.936V22ZM102.899 22.24C101.827 22.24 100.875 22.072 100.043 21.736C99.2107 21.384 98.4987 20.912 97.9067 20.32C97.3307 19.728 96.8907 19.048 96.5867 18.28C96.2827 17.496 96.1307 16.68 96.1307 15.832C96.1307 14.616 96.3947 13.512 96.9227 12.52C97.4667 11.512 98.2427 10.704 99.2507 10.096C100.259 9.472 101.475 9.16 102.899 9.16C104.323 9.16 105.531 9.464 106.523 10.072C107.531 10.68 108.299 11.48 108.827 12.472C109.355 13.448 109.619 14.512 109.619 15.664C109.619 15.888 109.603 16.112 109.571 16.336C109.555 16.544 109.539 16.728 109.523 16.888H100.211C100.259 17.448 100.411 17.92 100.667 18.304C100.939 18.688 101.283 18.984 101.699 19.192C102.115 19.384 102.555 19.48 103.019 19.48C103.595 19.48 104.131 19.344 104.627 19.072C105.139 18.8 105.491 18.432 105.683 17.968L108.947 18.88C108.627 19.536 108.171 20.12 107.579 20.632C107.003 21.128 106.315 21.52 105.515 21.808C104.731 22.096 103.859 22.24 102.899 22.24ZM100.115 14.536H105.587C105.523 14.008 105.371 13.552 105.131 13.168C104.891 12.768 104.571 12.464 104.171 12.256C103.771 12.032 103.331 11.92 102.851 11.92C102.355 11.92 101.907 12.032 101.507 12.256C101.123 12.464 100.811 12.768 100.571 13.168C100.331 13.552 100.179 14.008 100.115 14.536Z" fill="white"/>
<path d="M75.48 42.328C75.128 42.472 74.736 42.616 74.304 42.76C73.888 42.904 73.448 43.016 72.984 43.096C72.52 43.192 72.064 43.24 71.616 43.24C70.976 43.24 70.384 43.136 69.84 42.928C69.312 42.704 68.888 42.344 68.568 41.848C68.264 41.352 68.112 40.696 68.112 39.88V33.304H66.504V30.4H68.112V26.392H71.952V30.4H74.52V33.304H71.952V38.56C71.952 38.976 72.056 39.28 72.264 39.472C72.472 39.648 72.736 39.736 73.056 39.736C73.328 39.736 73.616 39.688 73.92 39.592C74.24 39.496 74.512 39.392 74.736 39.28L75.48 42.328ZM82.8356 43.24C81.7636 43.24 80.8036 43.064 79.9556 42.712C79.1236 42.36 78.4196 41.88 77.8436 41.272C77.2676 40.664 76.8276 39.968 76.5236 39.184C76.2356 38.4 76.0916 37.576 76.0916 36.712C76.0916 35.832 76.2356 35 76.5236 34.216C76.8276 33.432 77.2676 32.736 77.8436 32.128C78.4196 31.52 79.1236 31.04 79.9556 30.688C80.8036 30.336 81.7636 30.16 82.8356 30.16C83.9076 30.16 84.8596 30.336 85.6916 30.688C86.5236 31.04 87.2276 31.52 87.8036 32.128C88.3796 32.736 88.8196 33.432 89.1236 34.216C89.4276 35 89.5796 35.832 89.5796 36.712C89.5796 37.576 89.4276 38.4 89.1236 39.184C88.8196 39.968 88.3796 40.664 87.8036 41.272C87.2276 41.88 86.5236 42.36 85.6916 42.712C84.8596 43.064 83.9076 43.24 82.8356 43.24ZM80.0276 36.712C80.0276 37.368 80.1476 37.944 80.3876 38.44C80.6436 38.936 80.9796 39.32 81.3956 39.592C81.8116 39.864 82.2916 40 82.8356 40C83.3636 40 83.8356 39.864 84.2516 39.592C84.6836 39.304 85.0196 38.912 85.2596 38.416C85.4996 37.92 85.6196 37.352 85.6196 36.712C85.6196 36.056 85.4996 35.48 85.2596 34.984C85.0196 34.488 84.6836 34.104 84.2516 33.832C83.8356 33.56 83.3636 33.424 82.8356 33.424C82.2916 33.424 81.8116 33.56 81.3956 33.832C80.9796 34.104 80.6436 34.488 80.3876 34.984C80.1476 35.48 80.0276 36.056 80.0276 36.712ZM101.982 43.048C101.15 43.048 100.39 42.888 99.7016 42.568C99.0136 42.232 98.4216 41.776 97.9256 41.2C97.4456 40.608 97.0696 39.928 96.7976 39.16C96.5256 38.392 96.3896 37.568 96.3896 36.688C96.3896 35.76 96.5336 34.904 96.8216 34.12C97.1096 33.336 97.5096 32.648 98.0216 32.056C98.5496 31.448 99.1656 30.984 99.8696 30.664C100.59 30.328 101.382 30.16 102.246 30.16C103.19 30.16 104.022 30.368 104.742 30.784C105.462 31.184 106.038 31.744 106.47 32.464V30.4H109.806V42.136C109.806 43.416 109.494 44.52 108.87 45.448C108.262 46.376 107.406 47.088 106.302 47.584C105.214 48.096 103.95 48.352 102.51 48.352C101.166 48.352 100.006 48.128 99.0296 47.68C98.0696 47.248 97.2296 46.632 96.5096 45.832L98.5736 43.744C99.0376 44.272 99.6136 44.688 100.302 44.992C100.99 45.312 101.726 45.472 102.51 45.472C103.134 45.472 103.71 45.36 104.238 45.136C104.766 44.912 105.182 44.552 105.486 44.056C105.806 43.56 105.966 42.92 105.966 42.136V40.912C105.582 41.6 105.022 42.128 104.286 42.496C103.566 42.864 102.798 43.048 101.982 43.048ZM103.302 40C103.606 40 103.886 39.96 104.142 39.88C104.414 39.784 104.662 39.664 104.886 39.52C105.11 39.36 105.318 39.176 105.51 38.968C105.702 38.744 105.854 38.504 105.966 38.248V35.608C105.806 35.16 105.574 34.776 105.27 34.456C104.966 34.12 104.63 33.864 104.262 33.688C103.894 33.512 103.51 33.424 103.11 33.424C102.71 33.424 102.334 33.512 101.982 33.688C101.63 33.864 101.326 34.12 101.07 34.456C100.83 34.776 100.638 35.136 100.494 35.536C100.366 35.936 100.302 36.352 100.302 36.784C100.302 37.248 100.374 37.672 100.518 38.056C100.678 38.44 100.894 38.784 101.166 39.088C101.438 39.376 101.758 39.6 102.126 39.76C102.494 39.92 102.886 40 103.302 40ZM120.429 33.688C119.501 33.688 118.661 33.84 117.909 34.144C117.157 34.432 116.613 34.864 116.277 35.44V43H112.437V30.4H115.965V32.944C116.397 32.096 116.957 31.432 117.645 30.952C118.333 30.472 119.053 30.224 119.805 30.208C119.981 30.208 120.109 30.208 120.189 30.208C120.285 30.208 120.365 30.216 120.429 30.232V33.688ZM127.953 43.24C126.881 43.24 125.921 43.064 125.073 42.712C124.241 42.36 123.537 41.88 122.961 41.272C122.385 40.664 121.945 39.968 121.641 39.184C121.353 38.4 121.209 37.576 121.209 36.712C121.209 35.832 121.353 35 121.641 34.216C121.945 33.432 122.385 32.736 122.961 32.128C123.537 31.52 124.241 31.04 125.073 30.688C125.921 30.336 126.881 30.16 127.953 30.16C129.025 30.16 129.977 30.336 130.809 30.688C131.641 31.04 132.345 31.52 132.921 32.128C133.497 32.736 133.937 33.432 134.241 34.216C134.545 35 134.697 35.832 134.697 36.712C134.697 37.576 134.545 38.4 134.241 39.184C133.937 39.968 133.497 40.664 132.921 41.272C132.345 41.88 131.641 42.36 130.809 42.712C129.977 43.064 129.025 43.24 127.953 43.24ZM125.145 36.712C125.145 37.368 125.265 37.944 125.505 38.44C125.761 38.936 126.097 39.32 126.513 39.592C126.929 39.864 127.409 40 127.953 40C128.481 40 128.953 39.864 129.369 39.592C129.801 39.304 130.137 38.912 130.377 38.416C130.617 37.92 130.737 37.352 130.737 36.712C130.737 36.056 130.617 35.48 130.377 34.984C130.137 34.488 129.801 34.104 129.369 33.832C128.953 33.56 128.481 33.424 127.953 33.424C127.409 33.424 126.929 33.56 126.513 33.832C126.097 34.104 125.761 34.488 125.505 34.984C125.265 35.48 125.145 36.056 125.145 36.712ZM151.684 30.4H155.332L150.124 43H146.956L145.036 37.864L143.116 43H139.948L134.74 30.4H138.364L141.748 39.376L142.948 35.872L140.692 30.4H143.836L145.036 34.192L146.236 30.4H149.356L147.124 35.872L148.324 39.376L151.684 30.4Z" fill="white"/>
</svg>
