<svg width="13" height="10" viewBox="0 0 13 10" fill="none" xmlns="http://www.w3.org/2000/svg">
<path d="M12.5357 0H0.464286C0.207478 0 0 0.203125 0 0.454545V9.54545C0 9.79688 0.207478 10 0.464286 10H12.5357C12.7925 10 13 9.79688 13 9.54545V0.454545C13 0.203125 12.7925 0 12.5357 0ZM11.3634 1.54688L6.78583 5.03409C6.67266 5.12074 6.51451 5.12074 6.40134 5.03409L1.82232 1.54688C1.80506 1.53383 1.7924 1.51583 1.78611 1.49539C1.77983 1.47495 1.78023 1.4531 1.78727 1.43289C1.79431 1.41269 1.80763 1.39515 1.82536 1.38273C1.8431 1.37031 1.86436 1.36363 1.88616 1.36364H11.2996C11.3214 1.36363 11.3426 1.37031 11.3603 1.38273C11.3781 1.39515 11.3914 1.41269 11.3984 1.43289C11.4055 1.4531 11.4059 1.47495 11.3996 1.49539C11.3933 1.51583 11.3807 1.53383 11.3634 1.54688Z" fill="#00B5D2"/>
</svg>
