<svg width="10" height="10" viewBox="0 0 10 10" fill="none" xmlns="http://www.w3.org/2000/svg">
<path d="M8.84656 10H8.7812C1.22629 9.56538 0.153607 3.18846 0.00366205 1.24231C-0.00841995 1.09099 0.00946323 0.938779 0.0562869 0.794389C0.10311 0.649999 0.177954 0.516271 0.27653 0.400866C0.375105 0.285462 0.495475 0.190649 0.630743 0.121861C0.76601 0.0530735 0.913517 0.0116622 1.06481 3.60612e-07H3.18326C3.33726 -0.000148779 3.48776 0.0459656 3.61527 0.13237C3.74277 0.218775 3.8414 0.341489 3.89838 0.484616L4.48278 1.92308C4.53905 2.0629 4.55301 2.21618 4.52294 2.36388C4.49286 2.51158 4.42007 2.64718 4.31361 2.75385L3.49468 3.58077C3.62261 4.30798 3.97073 4.97833 4.49197 5.50114C5.01321 6.02394 5.68239 6.37396 6.409 6.50385L7.2433 5.67692C7.35153 5.5716 7.48836 5.50048 7.63673 5.47244C7.78509 5.4444 7.93843 5.46067 8.07761 5.51923L9.52708 6.1C9.668 6.1588 9.78822 6.25824 9.87244 6.38564C9.95666 6.51305 10.0011 6.66265 9.99998 6.81538V8.84615C9.99998 9.15217 9.87846 9.44566 9.66215 9.66205C9.44584 9.87844 9.15247 10 8.84656 10ZM1.15708 0.769231C1.05511 0.769231 0.957322 0.809753 0.88522 0.881882C0.813117 0.954012 0.77261 1.05184 0.77261 1.15385V1.18462C0.949468 3.46154 2.08367 8.84615 8.82349 9.23077C8.874 9.23389 8.92463 9.22701 8.97248 9.21052C9.02032 9.19402 9.06444 9.16824 9.1023 9.13465C9.14017 9.10106 9.17103 9.06033 9.19312 9.01478C9.21521 8.96923 9.22809 8.91977 9.23103 8.86923V6.81538L7.78157 6.23462L6.67813 7.33077L6.49358 7.30769C3.14866 6.88846 2.69498 3.54231 2.69498 3.50769L2.67191 3.32308L3.76382 2.21923L3.18711 0.769231H1.15708Z" fill="white"/>
</svg>
