<svg width="28" height="28" viewBox="0 0 28 28" fill="none" xmlns="http://www.w3.org/2000/svg">
<path d="M15.8579 23.6972C13.229 23.6967 10.6759 22.8166 8.60508 21.1972L2.09427 27.708L2.09808e-05 25.6138L6.51084 19.1029C4.89054 17.0319 4.00993 14.4782 4.0093 11.8486C4.0093 5.31559 9.32489 0 15.8579 0C22.391 0 27.7065 5.31559 27.7065 11.8486C27.7065 18.3817 22.391 23.6972 15.8579 23.6972ZM15.8579 2.96216C10.957 2.96216 6.97145 6.94773 6.97145 11.8486C6.97145 16.7495 10.957 20.7351 15.8579 20.7351C20.7588 20.7351 24.7444 16.7495 24.7444 11.8486C24.7444 6.94773 20.7588 2.96216 15.8579 2.96216Z" fill="#6C6C6C"/>
<path d="M13.7666 9.75438C13.2053 10.3172 12.8957 11.0607 12.8957 11.8486H9.93359C9.93228 11.0702 10.0853 10.2993 10.3837 9.58033C10.6822 8.8614 11.1202 8.20876 11.6724 7.66013C13.9147 5.42074 17.8026 5.42074 20.0434 7.66013L17.9521 9.75734C16.8265 8.63468 14.8863 8.63764 13.7666 9.75438Z" fill="#6C6C6C"/>
</svg>
