<svg width="100" height="93" viewBox="0 0 100 93" fill="none" xmlns="http://www.w3.org/2000/svg">
<path d="M85 50.5C85 58.9057 82.5074 67.1226 77.8375 74.1117C73.1675 81.1008 66.5299 86.5482 58.764 89.7649C50.9982 92.9816 42.4529 93.8232 34.2087 92.1834C25.9645 90.5435 18.3917 86.4958 12.448 80.552C6.50423 74.6083 2.4565 67.0355 0.816626 58.7913C-0.823246 50.5471 0.0183955 42.0018 3.23512 34.236C6.45184 26.4701 11.8992 19.8325 18.8883 15.1625C25.8774 10.4926 34.0943 8 42.5 8L42.5 18.6429C36.1993 18.6429 30.04 20.5113 24.8012 24.0118C19.5623 27.5123 15.4791 32.4877 13.0679 38.3088C10.6567 44.1299 10.0258 50.5353 11.255 56.715C12.4843 62.8947 15.5183 68.5711 19.9736 73.0264C24.4289 77.4817 30.1053 80.5157 36.285 81.745C42.4647 82.9742 48.8701 82.3433 54.6912 79.9321C60.5123 77.5209 65.4877 73.4377 68.9882 68.1988C72.4887 62.96 74.3571 56.8007 74.3571 50.5H85Z" fill="#00B5D2"/>
<path d="M69.032 19.448C70.688 19.448 72.176 19.772 73.496 20.42C74.816 21.044 75.848 21.944 76.592 23.12C77.336 24.296 77.708 25.652 77.708 27.188C77.708 28.82 77.3 30.26 76.484 31.508C75.668 32.732 74.564 33.68 73.172 34.352C71.78 35.024 70.22 35.36 68.492 35.36C65.036 35.36 62.348 34.28 60.428 32.12C58.532 29.96 57.584 26.864 57.584 22.832C57.584 20 58.1 17.588 59.132 15.596C60.164 13.58 61.604 12.056 63.452 11.024C65.324 9.968 67.484 9.44 69.932 9.44C71.228 9.44 72.44 9.584 73.568 9.872C74.72 10.136 75.716 10.532 76.556 11.06L74.828 14.588C73.58 13.772 71.984 13.364 70.04 13.364C67.616 13.364 65.72 14.108 64.352 15.596C62.984 17.084 62.3 19.232 62.3 22.04V22.076C63.044 21.212 63.992 20.564 65.144 20.132C66.296 19.676 67.592 19.448 69.032 19.448ZM68.24 31.688C69.704 31.688 70.892 31.304 71.804 30.536C72.716 29.744 73.172 28.7 73.172 27.404C73.172 26.084 72.716 25.04 71.804 24.272C70.892 23.504 69.668 23.12 68.132 23.12C66.62 23.12 65.384 23.528 64.424 24.344C63.488 25.16 63.02 26.192 63.02 27.44C63.02 28.664 63.476 29.684 64.388 30.5C65.324 31.292 66.608 31.688 68.24 31.688Z" fill="#00B5D2"/>
<circle cx="43.5" cy="52.5" r="3.5" fill="#00B5D2"/>
<path d="M56.407 39.3878L46.4162 54.1977L41.5971 49.3785L56.407 39.3878Z" fill="#00B5D2"/>
</svg>
