<svg width="100" height="93" viewBox="0 0 100 93" fill="none" xmlns="http://www.w3.org/2000/svg">
<path d="M85 50.5C85 58.9057 82.5074 67.1226 77.8375 74.1117C73.1675 81.1008 66.5299 86.5482 58.764 89.7649C50.9982 92.9816 42.4529 93.8232 34.2087 92.1834C25.9645 90.5435 18.3917 86.4958 12.448 80.552C6.50423 74.6083 2.4565 67.0355 0.816626 58.7913C-0.823246 50.5471 0.0183955 42.0018 3.23512 34.236C6.45184 26.4701 11.8992 19.8325 18.8883 15.1625C25.8774 10.4926 34.0943 8 42.5 8V18.6429C36.1993 18.6429 30.04 20.5113 24.8012 24.0118C19.5623 27.5123 15.4791 32.4877 13.0679 38.3088C10.6567 44.1299 10.0258 50.5353 11.255 56.715C12.4843 62.8947 15.5183 68.5711 19.9736 73.0264C24.4289 77.4817 30.1053 80.5157 36.285 81.745C42.4647 82.9742 48.8701 82.3433 54.6912 79.9321C60.5123 77.5209 65.4877 73.4377 68.9882 68.1988C72.4887 62.96 74.3571 56.8007 74.3571 50.5H85Z" fill="#00B5D2"/>
<path d="M68.312 20.204C70.64 20.492 72.416 21.284 73.64 22.58C74.864 23.876 75.476 25.496 75.476 27.44C75.476 28.904 75.104 30.236 74.36 31.436C73.616 32.636 72.488 33.596 70.976 34.316C69.488 35.012 67.664 35.36 65.504 35.36C63.704 35.36 61.964 35.108 60.284 34.604C58.628 34.076 57.212 33.356 56.036 32.444L58.052 28.808C58.964 29.576 60.068 30.188 61.364 30.644C62.684 31.076 64.04 31.292 65.432 31.292C67.088 31.292 68.384 30.956 69.32 30.284C70.28 29.588 70.76 28.652 70.76 27.476C70.76 26.3 70.304 25.388 69.392 24.74C68.504 24.068 67.136 23.732 65.288 23.732H62.984V20.528L68.708 13.724H57.26V9.8H74.432V12.932L68.312 20.204Z" fill="#00B5D2"/>
<circle cx="43.5" cy="52.5" r="3.5" fill="#00B5D2"/>
<path d="M56.407 39.3878L46.4162 54.1977L41.5971 49.3785L56.407 39.3878Z" fill="#00B5D2"/>
</svg>
