<svg width="90" height="93" viewBox="0 0 90 93" fill="none" xmlns="http://www.w3.org/2000/svg">
<path d="M85 50.5C85 58.9057 82.5074 67.1226 77.8375 74.1117C73.1675 81.1008 66.5299 86.5482 58.764 89.7649C50.9982 92.9816 42.4529 93.8232 34.2087 92.1834C25.9645 90.5435 18.3917 86.4958 12.448 80.552C6.50423 74.6083 2.4565 67.0355 0.816626 58.7913C-0.823246 50.5471 0.0183955 42.0018 3.23512 34.236C6.45184 26.4701 11.8992 19.8325 18.8883 15.1625C25.8774 10.4926 34.0943 8 42.5 8L42.5 18.6429C36.1993 18.6429 30.04 20.5113 24.8012 24.0118C19.5623 27.5123 15.4791 32.4877 13.0679 38.3088C10.6567 44.1299 10.0258 50.5353 11.255 56.715C12.4843 62.8947 15.5183 68.5711 19.9736 73.0264C24.4289 77.4817 30.1053 80.5157 36.285 81.745C42.4647 82.9742 48.8701 82.3433 54.6912 79.9321C60.5123 77.5209 65.4877 73.4377 68.9882 68.1988C72.4887 62.96 74.3571 56.8007 74.3571 50.5H85Z" fill="#00B5D2"/>
<path d="M81.296 9.8V35H76.616V13.724H71.288V9.8H81.296Z" fill="#00B5D2"/>
<circle cx="43.5" cy="52.5" r="3.5" fill="#00B5D2"/>
<path d="M56.407 39.3878L46.4162 54.1977L41.5971 49.3785L56.407 39.3878Z" fill="#00B5D2"/>
</svg>
