<svg width="120" height="138" viewBox="0 0 120 138" fill="none" xmlns="http://www.w3.org/2000/svg">
<path d="M120 78C120 89.8669 116.481 101.467 109.888 111.334C103.295 121.201 93.9246 128.892 82.961 133.433C71.9974 137.974 59.9334 139.162 48.2946 136.847C36.6557 134.532 25.9647 128.818 17.5736 120.426C9.18244 112.035 3.468 101.344 1.15288 89.7054C-1.16223 78.0666 0.0259702 66.0026 4.56723 55.039C9.10849 44.0754 16.7988 34.7047 26.6658 28.1118C36.5327 21.5189 48.1331 18 60 18L60 33.0253C51.1048 33.0253 42.4094 35.663 35.0134 40.6049C27.6173 45.5468 21.8528 52.5709 18.4488 60.7889C15.0448 69.007 14.1541 78.0499 15.8895 86.7741C17.6248 95.4984 21.9083 103.512 28.1981 109.802C34.4879 116.092 42.5016 120.375 51.2259 122.111C59.9501 123.846 68.993 122.955 77.2111 119.551C85.4291 116.147 92.4532 110.383 97.3951 102.987C102.337 95.5906 104.975 86.8952 104.975 78H120Z" fill="#00B5D2"/>
<path d="M96.168 34.352C99.112 34.352 101.757 34.928 104.104 36.08C106.451 37.1893 108.285 38.7893 109.608 40.88C110.931 42.9707 111.592 45.3813 111.592 48.112C111.592 51.0133 110.867 53.5733 109.416 55.792C107.965 57.968 106.003 59.6533 103.528 60.848C101.053 62.0427 98.28 62.64 95.208 62.64C89.064 62.64 84.2853 60.72 80.872 56.88C77.5013 53.04 75.816 47.536 75.816 40.368C75.816 35.3333 76.7333 31.0453 78.568 27.504C80.4027 23.92 82.9627 21.2107 86.248 19.376C89.576 17.4987 93.416 16.56 97.768 16.56C100.072 16.56 102.227 16.816 104.232 17.328C106.28 17.7973 108.051 18.5013 109.544 19.44L106.472 25.712C104.253 24.2613 101.416 23.536 97.96 23.536C93.6507 23.536 90.28 24.8587 87.848 27.504C85.416 30.1493 84.2 33.968 84.2 38.96V39.024C85.5227 37.488 87.208 36.336 89.256 35.568C91.304 34.7573 93.608 34.352 96.168 34.352ZM94.76 56.112C97.3627 56.112 99.4747 55.4293 101.096 54.064C102.717 52.656 103.528 50.8 103.528 48.496C103.528 46.1493 102.717 44.2933 101.096 42.928C99.4747 41.5627 97.2987 40.88 94.568 40.88C91.88 40.88 89.6827 41.6053 87.976 43.056C86.312 44.5067 85.48 46.3413 85.48 48.56C85.48 50.736 86.2907 52.5493 87.912 54C89.576 55.408 91.8587 56.112 94.76 56.112Z" fill="#00B5D2"/>
<circle cx="60" cy="80" r="5" fill="#00B5D2"/>
<path d="M77.4806 61.9584L63.2669 83.0281L56.4108 76.172L77.4806 61.9584Z" fill="#00B5D2"/>
</svg>
