<svg width="135" height="138" viewBox="0 0 135 138" fill="none" xmlns="http://www.w3.org/2000/svg">
<path d="M120 78C120 89.8669 116.481 101.467 109.888 111.334C103.295 121.201 93.9246 128.892 82.961 133.433C71.9974 137.974 59.9334 139.162 48.2946 136.847C36.6557 134.532 25.9647 128.818 17.5736 120.426C9.18244 112.035 3.468 101.344 1.15288 89.7054C-1.16223 78.0666 0.0259702 66.0026 4.56723 55.039C9.10849 44.0754 16.7988 34.7047 26.6658 28.1118C36.5327 21.5189 48.1331 18 60 18V33.0253C51.1048 33.0253 42.4094 35.663 35.0134 40.6049C27.6173 45.5468 21.8528 52.5709 18.4488 60.7889C15.0448 69.007 14.1541 78.0499 15.8895 86.7741C17.6248 95.4984 21.9083 103.512 28.1981 109.802C34.4879 116.092 42.5016 120.375 51.2259 122.111C59.9501 123.846 68.993 122.955 77.2111 119.551C85.4291 116.147 92.4532 110.383 97.3951 102.987C102.337 95.5906 104.975 86.8952 104.975 78H120Z" fill="#00B5D2"/>
<path d="M91.304 17.2V62H82.984V24.176H73.512V17.2H91.304ZM132.639 54.96V62H99.615V56.432L117.407 39.536C119.412 37.616 120.756 35.952 121.439 34.544C122.164 33.0933 122.527 31.664 122.527 30.256C122.527 28.1653 121.823 26.5653 120.415 25.456C119.007 24.3467 116.938 23.792 114.207 23.792C109.642 23.792 106.143 25.3493 103.711 28.464L97.887 23.984C99.6363 21.6373 101.983 19.824 104.927 18.544C107.914 17.2213 111.242 16.56 114.911 16.56C119.775 16.56 123.658 17.712 126.559 20.016C129.46 22.32 130.911 25.456 130.911 29.424C130.911 31.856 130.399 34.1387 129.375 36.272C128.351 38.4053 126.388 40.8373 123.487 43.568L111.519 54.96H132.639Z" fill="#00B5D2"/>
<circle cx="60" cy="80" r="5" fill="#00B5D2"/>
<path d="M77.4806 61.9584L63.2669 83.0281L56.4108 76.172L77.4806 61.9584Z" fill="#00B5D2"/>
</svg>
